<?xml version="1.0" encoding="UTF-8" standalone="no"?>
<!DOCTYPE svg PUBLIC "-//W3C//DTD SVG 1.1//EN"
 "http://www.w3.org/Graphics/SVG/1.1/DTD/svg11.dtd">
<!-- Generated by graphviz version 2.50.0 (0)
 -->
<!-- Pages: 1 -->
<svg width="1063pt" height="463pt"
 viewBox="0.00 0.00 1063.36 462.86" xmlns="http://www.w3.org/2000/svg" xmlns:xlink="http://www.w3.org/1999/xlink">
<g id="graph0" class="graph" transform="scale(1 1) rotate(0) translate(4 458.86)">
<polygon fill="white" stroke="transparent" points="-4,4 -4,-458.86 1059.36,-458.86 1059.36,4 -4,4"/>
<g id="clust1" class="cluster">
<title>clusterobs_id (200)</title>
<path fill="none" stroke="black" d="M20,-18.98C20,-18.98 322,-18.98 322,-18.98 328,-18.98 334,-24.98 334,-30.98 334,-30.98 334,-423.88 334,-423.88 334,-429.88 328,-435.88 322,-435.88 322,-435.88 20,-435.88 20,-435.88 14,-435.88 8,-429.88 8,-423.88 8,-423.88 8,-30.98 8,-30.98 8,-24.98 14,-18.98 20,-18.98"/>
<text text-anchor="middle" x="291" y="-26.78" font-family="Times,serif" font-size="14.00">obs_id (200)</text>
</g>
<g id="clust2" class="cluster">
<title>cluster2</title>
<path fill="none" stroke="black" d="M470,-332.91C470,-332.91 546,-332.91 546,-332.91 552,-332.91 558,-338.91 558,-344.91 558,-344.91 558,-434.86 558,-434.86 558,-440.86 552,-446.86 546,-446.86 546,-446.86 470,-446.86 470,-446.86 464,-446.86 458,-440.86 458,-434.86 458,-434.86 458,-344.91 458,-344.91 458,-338.91 464,-332.91 470,-332.91"/>
<text text-anchor="middle" x="546.5" y="-340.71" font-family="Times,serif" font-size="14.00">2</text>
</g>
<g id="clust3" class="cluster">
<title>clusterfourier_features (20)</title>
<path fill="none" stroke="black" d="M672,-332.91C672,-332.91 782,-332.91 782,-332.91 788,-332.91 794,-338.91 794,-344.91 794,-344.91 794,-434.86 794,-434.86 794,-440.86 788,-446.86 782,-446.86 782,-446.86 672,-446.86 672,-446.86 666,-446.86 660,-440.86 660,-434.86 660,-434.86 660,-344.91 660,-344.91 660,-338.91 666,-332.91 672,-332.91"/>
<text text-anchor="middle" x="729.5" y="-340.71" font-family="Times,serif" font-size="14.00">fourier_features (20)</text>
</g>
<g id="clust4" class="cluster">
<title>cluster20 x 200</title>
<path fill="none" stroke="black" d="M354,-343.88C354,-343.88 438,-343.88 438,-343.88 444,-343.88 450,-349.88 450,-355.88 450,-355.88 450,-423.88 450,-423.88 450,-429.88 444,-435.88 438,-435.88 438,-435.88 354,-435.88 354,-435.88 348,-435.88 342,-429.88 342,-423.88 342,-423.88 342,-355.88 342,-355.88 342,-349.88 348,-343.88 354,-343.88"/>
<text text-anchor="middle" x="417.5" y="-351.68" font-family="Times,serif" font-size="14.00">20 x 200</text>
</g>
<g id="clust5" class="cluster">
<title>clusterobs_id_fut (50)</title>
<path fill="none" stroke="black" d="M715,-8C715,-8 915,-8 915,-8 921,-8 927,-14 927,-20 927,-20 927,-312.91 927,-312.91 927,-318.91 921,-324.91 915,-324.91 915,-324.91 715,-324.91 715,-324.91 709,-324.91 703,-318.91 703,-312.91 703,-312.91 703,-20 703,-20 703,-14 709,-8 715,-8"/>
<text text-anchor="middle" x="876.5" y="-15.8" font-family="Times,serif" font-size="14.00">obs_id_fut (50)</text>
</g>
<g id="clust6" class="cluster">
<title>cluster20 x 50</title>
<path fill="none" stroke="black" d="M947,-232.91C947,-232.91 1027,-232.91 1027,-232.91 1033,-232.91 1039,-238.91 1039,-244.91 1039,-244.91 1039,-312.91 1039,-312.91 1039,-318.91 1033,-324.91 1027,-324.91 1027,-324.91 947,-324.91 947,-324.91 941,-324.91 935,-318.91 935,-312.91 935,-312.91 935,-244.91 935,-244.91 935,-238.91 941,-232.91 947,-232.91"/>
<text text-anchor="middle" x="1010" y="-240.71" font-family="Times,serif" font-size="14.00">20 x 50</text>
</g>
<g id="clust7" class="cluster">
<title>clusterobs_id_fut_1 (51)</title>
<path fill="none" stroke="black" d="M557,-129.93C557,-129.93 647,-129.93 647,-129.93 653,-129.93 659,-135.93 659,-141.93 659,-141.93 659,-209.93 659,-209.93 659,-215.93 653,-221.93 647,-221.93 647,-221.93 557,-221.93 557,-221.93 551,-221.93 545,-215.93 545,-209.93 545,-209.93 545,-141.93 545,-141.93 545,-135.93 551,-129.93 557,-129.93"/>
<text text-anchor="middle" x="602" y="-137.73" font-family="Times,serif" font-size="14.00">obs_id_fut_1 (51)</text>
</g>
<!-- y -->
<g id="node1" class="node">
<title>y</title>
<path fill="lightgrey" stroke="black" d="M255,-102.98C255,-102.98 191,-102.98 191,-102.98 185,-102.98 179,-96.98 179,-90.98 179,-90.98 179,-61.98 179,-61.98 179,-55.98 185,-49.98 191,-49.98 191,-49.98 255,-49.98 255,-49.98 261,-49.98 267,-55.98 267,-61.98 267,-61.98 267,-90.98 267,-90.98 267,-96.98 261,-102.98 255,-102.98"/>
<text text-anchor="middle" x="223" y="-87.78" font-family="Times,serif" font-size="14.00">y</text>
<text text-anchor="middle" x="223" y="-72.78" font-family="Times,serif" font-size="14.00">~</text>
<text text-anchor="middle" x="223" y="-57.78" font-family="Times,serif" font-size="14.00">MutableData</text>
</g>
<!-- ar -->
<g id="node2" class="node">
<title>ar</title>
<polygon fill="none" stroke="black" points="325.5,-316.91 234.5,-316.91 234.5,-263.91 325.5,-263.91 325.5,-316.91"/>
<text text-anchor="middle" x="280" y="-301.71" font-family="Times,serif" font-size="14.00">ar</text>
<text text-anchor="middle" x="280" y="-286.71" font-family="Times,serif" font-size="14.00">~</text>
<text text-anchor="middle" x="280" y="-271.71" font-family="Times,serif" font-size="14.00">Deterministic</text>
</g>
<!-- likelihood -->
<g id="node6" class="node">
<title>likelihood</title>
<ellipse fill="lightgrey" stroke="black" cx="223" cy="-187.43" rx="50.41" ry="37.45"/>
<text text-anchor="middle" x="223" y="-198.73" font-family="Times,serif" font-size="14.00">likelihood</text>
<text text-anchor="middle" x="223" y="-183.73" font-family="Times,serif" font-size="14.00">~</text>
<text text-anchor="middle" x="223" y="-168.73" font-family="Times,serif" font-size="14.00">Normal</text>
</g>
<!-- ar&#45;&gt;likelihood -->
<g id="edge12" class="edge">
<title>ar&#45;&gt;likelihood</title>
<path fill="none" stroke="black" d="M265.47,-263.66C259.85,-253.71 253.26,-242.04 246.98,-230.91"/>
<polygon fill="black" stroke="black" points="249.99,-229.12 242.03,-222.14 243.9,-232.57 249.99,-229.12"/>
</g>
<!-- ar1_fut -->
<g id="node18" class="node">
<title>ar1_fut</title>
<polygon fill="none" stroke="black" points="647.5,-213.93 556.5,-213.93 556.5,-160.93 647.5,-160.93 647.5,-213.93"/>
<text text-anchor="middle" x="602" y="-198.73" font-family="Times,serif" font-size="14.00">ar1_fut</text>
<text text-anchor="middle" x="602" y="-183.73" font-family="Times,serif" font-size="14.00">~</text>
<text text-anchor="middle" x="602" y="-168.73" font-family="Times,serif" font-size="14.00">Deterministic</text>
</g>
<!-- ar&#45;&gt;ar1_fut -->
<g id="edge16" class="edge">
<title>ar&#45;&gt;ar1_fut</title>
<path fill="none" stroke="black" d="M325.79,-275.05C383.97,-256.8 484.3,-225.34 546.69,-205.77"/>
<polygon fill="black" stroke="black" points="547.87,-209.07 556.37,-202.74 545.78,-202.39 547.87,-209.07"/>
</g>
<!-- seasonality -->
<g id="node3" class="node">
<title>seasonality</title>
<polygon fill="none" stroke="black" points="216.5,-316.91 125.5,-316.91 125.5,-263.91 216.5,-263.91 216.5,-316.91"/>
<text text-anchor="middle" x="171" y="-301.71" font-family="Times,serif" font-size="14.00">seasonality</text>
<text text-anchor="middle" x="171" y="-286.71" font-family="Times,serif" font-size="14.00">~</text>
<text text-anchor="middle" x="171" y="-271.71" font-family="Times,serif" font-size="14.00">Deterministic</text>
</g>
<!-- seasonality&#45;&gt;likelihood -->
<g id="edge13" class="edge">
<title>seasonality&#45;&gt;likelihood</title>
<path fill="none" stroke="black" d="M184.26,-263.66C189.24,-253.99 195.05,-242.7 200.64,-231.85"/>
<polygon fill="black" stroke="black" points="203.79,-233.38 205.25,-222.89 197.56,-230.18 203.79,-233.38"/>
</g>
<!-- t -->
<g id="node4" class="node">
<title>t</title>
<path fill="lightgrey" stroke="black" d="M203,-427.88C203,-427.88 139,-427.88 139,-427.88 133,-427.88 127,-421.88 127,-415.88 127,-415.88 127,-386.88 127,-386.88 127,-380.88 133,-374.88 139,-374.88 139,-374.88 203,-374.88 203,-374.88 209,-374.88 215,-380.88 215,-386.88 215,-386.88 215,-415.88 215,-415.88 215,-421.88 209,-427.88 203,-427.88"/>
<text text-anchor="middle" x="171" y="-412.68" font-family="Times,serif" font-size="14.00">t</text>
<text text-anchor="middle" x="171" y="-397.68" font-family="Times,serif" font-size="14.00">~</text>
<text text-anchor="middle" x="171" y="-382.68" font-family="Times,serif" font-size="14.00">MutableData</text>
</g>
<!-- t&#45;&gt;ar -->
<g id="edge4" class="edge">
<title>t&#45;&gt;ar</title>
<path fill="none" stroke="black" d="M196.56,-374.83C211.62,-359.78 230.83,-340.57 247.02,-324.37"/>
<polygon fill="black" stroke="black" points="249.63,-326.72 254.23,-317.17 244.68,-321.77 249.63,-326.72"/>
</g>
<!-- trend -->
<g id="node5" class="node">
<title>trend</title>
<polygon fill="none" stroke="black" points="107.5,-316.91 16.5,-316.91 16.5,-263.91 107.5,-263.91 107.5,-316.91"/>
<text text-anchor="middle" x="62" y="-301.71" font-family="Times,serif" font-size="14.00">trend</text>
<text text-anchor="middle" x="62" y="-286.71" font-family="Times,serif" font-size="14.00">~</text>
<text text-anchor="middle" x="62" y="-271.71" font-family="Times,serif" font-size="14.00">Deterministic</text>
</g>
<!-- t&#45;&gt;trend -->
<g id="edge7" class="edge">
<title>t&#45;&gt;trend</title>
<path fill="none" stroke="black" d="M145.44,-374.83C130.38,-359.78 111.17,-340.57 94.98,-324.37"/>
<polygon fill="black" stroke="black" points="97.32,-321.77 87.77,-317.17 92.37,-326.72 97.32,-321.77"/>
</g>
<!-- trend&#45;&gt;likelihood -->
<g id="edge11" class="edge">
<title>trend&#45;&gt;likelihood</title>
<path fill="none" stroke="black" d="M82.39,-263.76C91.78,-253.18 103.58,-241.42 116,-232.91 131.68,-222.16 150.36,-213.28 167.7,-206.36"/>
<polygon fill="black" stroke="black" points="169.09,-209.58 177.16,-202.72 166.57,-203.05 169.09,-209.58"/>
</g>
<!-- likelihood&#45;&gt;y -->
<g id="edge1" class="edge">
<title>likelihood&#45;&gt;y</title>
<path fill="none" stroke="black" d="M223,-149.85C223,-138.11 223,-125.12 223,-113.43"/>
<polygon fill="black" stroke="black" points="226.5,-113.13 223,-103.13 219.5,-113.13 226.5,-113.13"/>
</g>
<!-- coefs -->
<g id="node7" class="node">
<title>coefs</title>
<ellipse fill="none" stroke="black" cx="508" cy="-401.38" rx="41.94" ry="37.45"/>
<text text-anchor="middle" x="508" y="-412.68" font-family="Times,serif" font-size="14.00">coefs</text>
<text text-anchor="middle" x="508" y="-397.68" font-family="Times,serif" font-size="14.00">~</text>
<text text-anchor="middle" x="508" y="-382.68" font-family="Times,serif" font-size="14.00">Normal</text>
</g>
<!-- coefs&#45;&gt;ar -->
<g id="edge3" class="edge">
<title>coefs&#45;&gt;ar</title>
<path fill="none" stroke="black" d="M489.33,-367.56C480.32,-354.7 468.33,-341.09 454,-332.91 432.17,-320.44 422.59,-330.13 398,-324.91 377.33,-320.52 354.95,-314.5 335.3,-308.77"/>
<polygon fill="black" stroke="black" points="336.17,-305.38 325.59,-305.9 334.19,-312.09 336.17,-305.38"/>
</g>
<!-- coefs&#45;&gt;ar1_fut -->
<g id="edge15" class="edge">
<title>coefs&#45;&gt;ar1_fut</title>
<path fill="none" stroke="black" d="M523.1,-366.33C540.47,-327.17 568.84,-263.2 586.41,-223.59"/>
<polygon fill="black" stroke="black" points="589.78,-224.63 590.63,-214.07 583.38,-221.79 589.78,-224.63"/>
</g>
<!-- sigma -->
<g id="node8" class="node">
<title>sigma</title>
<ellipse fill="none" stroke="black" cx="963" cy="-401.38" rx="58.88" ry="37.45"/>
<text text-anchor="middle" x="963" y="-412.68" font-family="Times,serif" font-size="14.00">sigma</text>
<text text-anchor="middle" x="963" y="-397.68" font-family="Times,serif" font-size="14.00">~</text>
<text text-anchor="middle" x="963" y="-382.68" font-family="Times,serif" font-size="14.00">HalfNormal</text>
</g>
<!-- sigma&#45;&gt;ar -->
<g id="edge2" class="edge">
<title>sigma&#45;&gt;ar</title>
<path fill="none" stroke="black" d="M939.09,-366.87C927.7,-353.72 912.86,-340.08 896,-332.91 870.54,-322.07 425.37,-328.94 398,-324.91 377.18,-321.84 354.86,-316.15 335.29,-310.32"/>
<polygon fill="black" stroke="black" points="336.21,-306.94 325.63,-307.36 334.17,-313.63 336.21,-306.94"/>
</g>
<!-- sigma&#45;&gt;likelihood -->
<g id="edge10" class="edge">
<title>sigma&#45;&gt;likelihood</title>
<path fill="none" stroke="black" d="M939.05,-366.97C927.64,-353.84 912.81,-340.19 896,-332.91 867.44,-320.54 646.61,-330.52 616,-324.91 549.08,-312.63 367.83,-244.52 276.76,-209.39"/>
<polygon fill="black" stroke="black" points="277.76,-206.03 267.17,-205.69 275.24,-212.56 277.76,-206.03"/>
</g>
<!-- yhat_fut -->
<g id="node13" class="node">
<title>yhat_fut</title>
<ellipse fill="none" stroke="black" cx="813" cy="-76.48" rx="43.68" ry="37.45"/>
<text text-anchor="middle" x="813" y="-87.78" font-family="Times,serif" font-size="14.00">yhat_fut</text>
<text text-anchor="middle" x="813" y="-72.78" font-family="Times,serif" font-size="14.00">~</text>
<text text-anchor="middle" x="813" y="-57.78" font-family="Times,serif" font-size="14.00">Normal</text>
</g>
<!-- sigma&#45;&gt;yhat_fut -->
<g id="edge22" class="edge">
<title>sigma&#45;&gt;yhat_fut</title>
<path fill="none" stroke="black" d="M1003.26,-373.56C1018.74,-360.84 1034.68,-344.19 1043,-324.91 1059.2,-287.36 1059.68,-270.24 1043,-232.91 1009.91,-158.87 920.96,-115.01 863.87,-93.64"/>
<polygon fill="black" stroke="black" points="864.89,-90.29 854.3,-90.16 862.5,-96.87 864.89,-90.29"/>
</g>
<!-- sigma&#45;&gt;ar1_fut -->
<g id="edge14" class="edge">
<title>sigma&#45;&gt;ar1_fut</title>
<path fill="none" stroke="black" d="M939.01,-367.07C927.59,-353.96 912.77,-340.29 896,-332.91 855.9,-315.25 737.52,-345.79 699,-324.91 658.53,-302.97 631.01,-255.94 615.9,-223.27"/>
<polygon fill="black" stroke="black" points="619.06,-221.76 611.79,-214.05 612.67,-224.61 619.06,-221.76"/>
</g>
<!-- alpha -->
<g id="node9" class="node">
<title>alpha</title>
<ellipse fill="none" stroke="black" cx="609" cy="-401.38" rx="41.94" ry="37.45"/>
<text text-anchor="middle" x="609" y="-412.68" font-family="Times,serif" font-size="14.00">alpha</text>
<text text-anchor="middle" x="609" y="-397.68" font-family="Times,serif" font-size="14.00">~</text>
<text text-anchor="middle" x="609" y="-382.68" font-family="Times,serif" font-size="14.00">Normal</text>
</g>
<!-- alpha&#45;&gt;trend -->
<g id="edge5" class="edge">
<title>alpha&#45;&gt;trend</title>
<path fill="none" stroke="black" d="M593.89,-366.43C586.29,-353.55 575.73,-340.23 562,-332.91 540.14,-321.24 139.77,-331.91 116,-324.91 112.83,-323.97 109.65,-322.79 106.53,-321.45"/>
<polygon fill="black" stroke="black" points="107.85,-318.2 97.33,-316.96 104.78,-324.49 107.85,-318.2"/>
</g>
<!-- trend_fut -->
<g id="node14" class="node">
<title>trend_fut</title>
<polygon fill="none" stroke="black" points="802.5,-213.93 711.5,-213.93 711.5,-160.93 802.5,-160.93 802.5,-213.93"/>
<text text-anchor="middle" x="757" y="-198.73" font-family="Times,serif" font-size="14.00">trend_fut</text>
<text text-anchor="middle" x="757" y="-183.73" font-family="Times,serif" font-size="14.00">~</text>
<text text-anchor="middle" x="757" y="-168.73" font-family="Times,serif" font-size="14.00">Deterministic</text>
</g>
<!-- alpha&#45;&gt;trend_fut -->
<g id="edge17" class="edge">
<title>alpha&#45;&gt;trend_fut</title>
<path fill="none" stroke="black" d="M630.75,-369.13C638.69,-357.73 647.75,-344.73 656,-332.91 682.46,-294.99 712.87,-251.5 733.35,-222.23"/>
<polygon fill="black" stroke="black" points="736.24,-224.2 739.11,-214 730.51,-220.18 736.24,-224.2"/>
</g>
<!-- beta -->
<g id="node10" class="node">
<title>beta</title>
<ellipse fill="none" stroke="black" cx="845" cy="-401.38" rx="41.94" ry="37.45"/>
<text text-anchor="middle" x="845" y="-412.68" font-family="Times,serif" font-size="14.00">beta</text>
<text text-anchor="middle" x="845" y="-397.68" font-family="Times,serif" font-size="14.00">~</text>
<text text-anchor="middle" x="845" y="-382.68" font-family="Times,serif" font-size="14.00">Normal</text>
</g>
<!-- beta&#45;&gt;trend -->
<g id="edge6" class="edge">
<title>beta&#45;&gt;trend</title>
<path fill="none" stroke="black" d="M829.91,-366.39C822.31,-353.5 811.75,-340.19 798,-332.91 764.51,-315.17 152.38,-335.51 116,-324.91 112.82,-323.98 109.65,-322.81 106.52,-321.47"/>
<polygon fill="black" stroke="black" points="107.84,-318.22 97.32,-316.99 104.78,-324.51 107.84,-318.22"/>
</g>
<!-- beta&#45;&gt;trend_fut -->
<g id="edge19" class="edge">
<title>beta&#45;&gt;trend_fut</title>
<path fill="none" stroke="black" d="M827.64,-367.19C819.92,-355.04 809.88,-342.05 798,-332.91 789.75,-326.56 782.54,-333 776,-324.91 753.25,-296.79 750.75,-254.29 752.51,-224.2"/>
<polygon fill="black" stroke="black" points="756.01,-224.35 753.28,-214.11 749.03,-223.82 756.01,-224.35"/>
</g>
<!-- beta_fourier -->
<g id="node11" class="node">
<title>beta_fourier</title>
<ellipse fill="none" stroke="black" cx="727" cy="-401.38" rx="58.88" ry="37.45"/>
<text text-anchor="middle" x="727" y="-412.68" font-family="Times,serif" font-size="14.00">beta_fourier</text>
<text text-anchor="middle" x="727" y="-397.68" font-family="Times,serif" font-size="14.00">~</text>
<text text-anchor="middle" x="727" y="-382.68" font-family="Times,serif" font-size="14.00">Normal</text>
</g>
<!-- beta_fourier&#45;&gt;seasonality -->
<g id="edge8" class="edge">
<title>beta_fourier&#45;&gt;seasonality</title>
<path fill="none" stroke="black" d="M703.08,-366.89C691.69,-353.75 676.85,-340.1 660,-332.91 615.54,-313.92 271.37,-338.58 225,-324.91 221.83,-323.97 218.65,-322.79 215.53,-321.45"/>
<polygon fill="black" stroke="black" points="216.85,-318.2 206.33,-316.96 213.78,-324.49 216.85,-318.2"/>
</g>
<!-- seasonality_fut -->
<g id="node16" class="node">
<title>seasonality_fut</title>
<polygon fill="none" stroke="black" points="919,-213.93 821,-213.93 821,-160.93 919,-160.93 919,-213.93"/>
<text text-anchor="middle" x="870" y="-198.73" font-family="Times,serif" font-size="14.00">seasonality_fut</text>
<text text-anchor="middle" x="870" y="-183.73" font-family="Times,serif" font-size="14.00">~</text>
<text text-anchor="middle" x="870" y="-168.73" font-family="Times,serif" font-size="14.00">Deterministic</text>
</g>
<!-- beta_fourier&#45;&gt;seasonality_fut -->
<g id="edge20" class="edge">
<title>beta_fourier&#45;&gt;seasonality_fut</title>
<path fill="none" stroke="black" d="M727.41,-363.85C729.88,-325.68 739.84,-266.76 776,-232.91 787.97,-221.71 796.84,-231.14 812,-224.91 816.2,-223.18 820.43,-221.16 824.6,-218.97"/>
<polygon fill="black" stroke="black" points="826.56,-221.88 833.58,-213.95 823.14,-215.77 826.56,-221.88"/>
</g>
<!-- fourier_terms -->
<g id="node12" class="node">
<title>fourier_terms</title>
<path fill="lightgrey" stroke="black" d="M429.5,-427.88C429.5,-427.88 362.5,-427.88 362.5,-427.88 356.5,-427.88 350.5,-421.88 350.5,-415.88 350.5,-415.88 350.5,-386.88 350.5,-386.88 350.5,-380.88 356.5,-374.88 362.5,-374.88 362.5,-374.88 429.5,-374.88 429.5,-374.88 435.5,-374.88 441.5,-380.88 441.5,-386.88 441.5,-386.88 441.5,-415.88 441.5,-415.88 441.5,-421.88 435.5,-427.88 429.5,-427.88"/>
<text text-anchor="middle" x="396" y="-412.68" font-family="Times,serif" font-size="14.00">fourier_terms</text>
<text text-anchor="middle" x="396" y="-397.68" font-family="Times,serif" font-size="14.00">~</text>
<text text-anchor="middle" x="396" y="-382.68" font-family="Times,serif" font-size="14.00">MutableData</text>
</g>
<!-- fourier_terms&#45;&gt;seasonality -->
<g id="edge9" class="edge">
<title>fourier_terms&#45;&gt;seasonality</title>
<path fill="none" stroke="black" d="M381.18,-374.67C371.07,-359.72 356.22,-342.06 338,-332.91 315.51,-321.6 248.95,-332.66 225,-324.91 222.05,-323.95 219.1,-322.8 216.18,-321.52"/>
<polygon fill="black" stroke="black" points="217.53,-318.28 207.01,-316.99 214.43,-324.56 217.53,-318.28"/>
</g>
<!-- trend_fut&#45;&gt;yhat_fut -->
<g id="edge23" class="edge">
<title>trend_fut&#45;&gt;yhat_fut</title>
<path fill="none" stroke="black" d="M770.13,-160.89C776.33,-148.82 783.9,-134.1 790.94,-120.4"/>
<polygon fill="black" stroke="black" points="794.25,-121.61 795.71,-111.12 788.02,-118.41 794.25,-121.61"/>
</g>
<!-- t_fut -->
<g id="node15" class="node">
<title>t_fut</title>
<path fill="lightgrey" stroke="black" d="M861,-316.91C861,-316.91 797,-316.91 797,-316.91 791,-316.91 785,-310.91 785,-304.91 785,-304.91 785,-275.91 785,-275.91 785,-269.91 791,-263.91 797,-263.91 797,-263.91 861,-263.91 861,-263.91 867,-263.91 873,-269.91 873,-275.91 873,-275.91 873,-304.91 873,-304.91 873,-310.91 867,-316.91 861,-316.91"/>
<text text-anchor="middle" x="829" y="-301.71" font-family="Times,serif" font-size="14.00">t_fut</text>
<text text-anchor="middle" x="829" y="-286.71" font-family="Times,serif" font-size="14.00">~</text>
<text text-anchor="middle" x="829" y="-271.71" font-family="Times,serif" font-size="14.00">MutableData</text>
</g>
<!-- t_fut&#45;&gt;trend_fut -->
<g id="edge18" class="edge">
<title>t_fut&#45;&gt;trend_fut</title>
<path fill="none" stroke="black" d="M810.65,-263.66C801.76,-251.2 790.97,-236.07 781.4,-222.65"/>
<polygon fill="black" stroke="black" points="783.98,-220.24 775.32,-214.12 778.28,-224.3 783.98,-220.24"/>
</g>
<!-- seasonality_fut&#45;&gt;yhat_fut -->
<g id="edge25" class="edge">
<title>seasonality_fut&#45;&gt;yhat_fut</title>
<path fill="none" stroke="black" d="M856.64,-160.89C850.27,-148.71 842.47,-133.82 835.25,-120"/>
<polygon fill="black" stroke="black" points="838.34,-118.36 830.6,-111.12 832.13,-121.6 838.34,-118.36"/>
</g>
<!-- ff_fut -->
<g id="node17" class="node">
<title>ff_fut</title>
<path fill="lightgrey" stroke="black" d="M1019,-316.91C1019,-316.91 955,-316.91 955,-316.91 949,-316.91 943,-310.91 943,-304.91 943,-304.91 943,-275.91 943,-275.91 943,-269.91 949,-263.91 955,-263.91 955,-263.91 1019,-263.91 1019,-263.91 1025,-263.91 1031,-269.91 1031,-275.91 1031,-275.91 1031,-304.91 1031,-304.91 1031,-310.91 1025,-316.91 1019,-316.91"/>
<text text-anchor="middle" x="987" y="-301.71" font-family="Times,serif" font-size="14.00">ff_fut</text>
<text text-anchor="middle" x="987" y="-286.71" font-family="Times,serif" font-size="14.00">~</text>
<text text-anchor="middle" x="987" y="-271.71" font-family="Times,serif" font-size="14.00">MutableData</text>
</g>
<!-- ff_fut&#45;&gt;seasonality_fut -->
<g id="edge21" class="edge">
<title>ff_fut&#45;&gt;seasonality_fut</title>
<path fill="none" stroke="black" d="M963.29,-263.77C953.61,-253.78 942.1,-242.45 931,-232.91 926.11,-228.7 920.84,-224.47 915.53,-220.38"/>
<polygon fill="black" stroke="black" points="917.27,-217.31 907.18,-214.08 913.06,-222.9 917.27,-217.31"/>
</g>
<!-- ar1_fut&#45;&gt;yhat_fut -->
<g id="edge24" class="edge">
<title>ar1_fut&#45;&gt;yhat_fut</title>
<path fill="none" stroke="black" d="M644,-160.78C660.89,-150.78 680.67,-139.46 699,-129.93 720.37,-118.82 744.55,-107.52 765.12,-98.27"/>
<polygon fill="black" stroke="black" points="766.59,-101.45 774.3,-94.17 763.74,-95.06 766.59,-101.45"/>
</g>
</g>
</svg>